<?xml version="1.0" encoding="utf-8"?>
<!-- Generator: Adobe Illustrator 21.0.0, SVG Export Plug-In . SVG Version: 6.00 Build 0)  -->
<svg version="1.1" id="Layer_1" xmlns="http://www.w3.org/2000/svg" xmlns:xlink="http://www.w3.org/1999/xlink" x="0px" y="0px"
	 viewBox="0 0 460 460" style="enable-background:new 0 0 360 360;" xml:space="preserve">
<style type="text/css">
	.st0{display:none;}
	.st1{display:inline;}
	.st2{display:none;stroke:#231F20;stroke-linecap:round;stroke-miterlimit:10;}
	.st3{display:none;fill:none;stroke:#231F20;stroke-linecap:round;stroke-miterlimit:10;}
	.st4{display:none;fill:#FFFFFF;stroke:#000000;stroke-miterlimit:10;}
	.st5{fill:#FFFFFF;}
	.st6{fill:none;}
	.st7{font-family:'Impact';}
	.st8{font-size:225px;}
	.st9{fill:none;stroke:#231F20;stroke-width:5;stroke-miterlimit:10;}
	.st10{fill:none;stroke:#231F20;stroke-width:8;stroke-linecap:round;stroke-miterlimit:10;}
	.st11{clip-path:url(#SVGID_2_);}
	.st12{clip-path:url(#SVGID_4_);fill:none;stroke:#000000;stroke-miterlimit:10;}
	.st13{clip-path:url(#SVGID_4_);fill:#FFFFFF;}
	.st14{clip-path:url(#SVGID_4_);fill:none;stroke:#FFFFFF;stroke-miterlimit:10;}
</style>
<g class="st0">
	<g class="st1">
		<path d="M173.5,156.7c4.3-0.1,8.6-0.3,12.9-0.4c0.6,0,0.6-1,0-1c-4.3,0.3-8.6,0.4-12.9,0.7C173.1,156.1,173,156.7,173.5,156.7
			L173.5,156.7z"/>
	</g>
</g>
<ellipse class="st2" cx="180.5" cy="145.4" rx="2.7" ry="4.6"/>
<ellipse class="st3" cx="180.6" cy="145.1" rx="5.3" ry="7.6"/>
<circle class="st4" cx="180.6" cy="146.2" r="1.9"/>
<g class="st0">
	<g class="st1">
		<path d="M186.7,143.7c-0.7-4.2-1.9-9.6-6.9-10.5c-4.3-0.9-7.2,3.9-8.3,7.4c-0.2,0.8,0.9,1.2,1.3,0.5c1.7-2.7,3.2-7.6,7.4-6.3
			c3.9,1.2,4.8,5.6,5.5,9.1C185.9,144.6,186.8,144.3,186.7,143.7L186.7,143.7z"/>
	</g>
</g>
<path class="st0" d="M187.1,139.9c-0.1-1.1-0.2-2.2-0.6-3.2c0-0.1-0.1-0.3-0.1-0.4c0,0,0-0.1,0-0.1c-0.1-0.9-0.2-1.6-0.6-2.3
	c0.3-0.2,0.5-0.6,0.3-1c-0.5-1-1-2.1-1.5-3.1c-0.2-0.4-0.6-0.5-0.9-0.3c-0.3-0.2-0.7-0.2-0.9,0c-0.1-0.1-0.3-0.1-0.4-0.1
	c0-0.1-0.1-0.2-0.2-0.3c-1.3-1.5-4-0.3-5.5,0.3c-1.3,0.6-2.3,1.5-2.5,2.8c-0.2,0.7-0.5,1.4-0.8,2.2c-0.1,0.2-0.1,0.3-0.1,0.5
	c0,0.1-0.1,0.1-0.1,0.2c-0.3,0.8,0.5,1.6,1.2,0.9c0.5-0.4,0.9-0.9,1.4-1.3c0.2,0,0.4,0,0.6-0.2c0.2-0.2,0.3-0.3,0.4-0.4
	c0.2,0.1,0.4,0.2,0.7,0.2c0.7-0.1,1.3-0.2,1.9-0.3c0.6-0.1,1.3-0.1,1.9-0.1c0,0.1,0,0.2,0,0.2c0.3,0.9,0.6,1.3,1.5,1.8
	c0.3,0.1,0.6,0.1,0.8,0c0.2,0.9,0.6,1.6,1.1,2.4c0.2,0.2,0.4,0.3,0.7,0.3c0,0.2,0.1,0.3,0.1,0.5c0,0,0,0,0,0.1l0.1,0.8
	c0,0.1,0,0.2,0.1,0.3c0,0.4,0,0.8,0,1.2c0,0.9,1.4,0.9,1.4,0C187.1,140.7,187.1,140.3,187.1,139.9z"/>
<g class="st0">
	<g class="st1">
		<path class="st5" d="M176.1,133.5c5-2.3,8.6,0.7,9.5,5.6c0.5,2.8,1.3,6,0.5,8.7c-0.1,0.3,0.3,0.4,0.5,0.1c1-2.4,0.4-4.8,0.2-7.3
			c-0.2-2.5,0-4.1-1.5-6.3c-2.5-3.7-5.9-4.2-9.9-2.2C174.4,132.6,175.2,133.9,176.1,133.5L176.1,133.5z"/>
	</g>
</g>
<g class="st0">
	<g class="st1">
		<path d="M182.8,129.9c0,0,0.1-0.1,0.1-0.1c0.2-0.2,0.1-0.7-0.3-0.7c-0.1,0-0.1,0-0.2,0C181.5,129.2,182.3,130.5,182.8,129.9
			L182.8,129.9z"/>
	</g>
</g>
<g id="Layer_2">
	<rect x="99.7" y="74.6" class="st6" width="161.1" height="243.9"/>
	<text transform="matrix(1 0 0 1 122.7826 252.5778)" class="st7 st8">e</text>
	<circle class="st9" cx="180" cy="180" r="143.4"/>
	<circle class="st10" cx="180" cy="180" r="97.5"/>
	<g>
		<g>
			<path d="M96.1,72c4.6-3.3,9.4-6.4,14.3-9.1c0.9,1.7,1.9,3.3,2.8,5c-1.9,1.1-3.7,2.1-5.6,3.3c1,1.5,1.9,3.1,2.9,4.6
				c1.7-1,3.3-2,5-3c0.9,1.6,1.8,3.2,2.7,4.8c-1.6,0.9-3.2,1.9-4.8,2.9c1.1,1.8,2.2,3.6,3.3,5.4c1.8-1.1,3.6-2.2,5.4-3.2
				c0.9,1.7,1.9,3.3,2.8,5c-4.1,2.3-8,4.8-11.9,7.6C107.4,87.5,101.8,79.8,96.1,72z"/>
			<path d="M133.1,52.8c-0.3,6.5-0.2,13,0.1,19.5c1.3,3.2,2.6,6.4,3.9,9.6c-2.3,0.9-4.5,1.9-6.8,3c-1.5-3.1-3-6.2-4.5-9.3
				c-4.5-4.6-9.3-9-14.3-13.2c2.7-1.5,5.5-2.9,8.2-4.2c3.7,4.5,5.9,7.6,6.8,9.3c-0.8-3-1.5-6.8-2.1-11.4
				C127.4,54.9,130.2,53.8,133.1,52.8z"/>
			<path d="M134.7,52.2c5.2-1.7,10.5-3.2,15.9-4.3c0.4,1.9,0.8,3.7,1.2,5.6c-2.1,0.4-4.1,0.9-6.1,1.4c0.5,1.7,0.9,3.5,1.4,5.2
				c1.8-0.5,3.7-0.9,5.5-1.3c0.4,1.8,0.8,3.5,1.2,5.3c-1.8,0.4-3.5,0.8-5.3,1.3c0.5,2,1.1,4.1,1.6,6.1c2-0.5,3.9-1,5.9-1.4
				c0.4,1.9,0.8,3.7,1.2,5.6c-4.5,0.9-8.9,2.1-13.2,3.6C140.8,70.3,137.7,61.3,134.7,52.2z"/>
			<path d="M177,57.3c-3,0.1-6,0.2-8.9,0.5c-0.2-1.6-0.3-3.3-0.5-4.9c-0.1-1.4-0.3-2.3-0.6-2.7c-0.2-0.3-0.7-0.5-1.4-0.4
				c-0.8,0.1-1.2,0.4-1.4,0.8c-0.2,0.5-0.1,1.4,0,2.8c0.5,4.4,1.1,8.8,1.6,13.1c0.2,1.4,0.4,2.3,0.6,2.7c0.2,0.4,0.7,0.6,1.3,0.5
				c0.6-0.1,1-0.3,1.1-0.8c0.1-0.4,0.1-1.4,0-3c-0.1-1.2-0.2-2.4-0.3-3.6c2.9-0.3,5.7-0.4,8.6-0.5c0,0.4,0,0.7,0,1.1
				c0.1,2.9-0.1,5-0.5,6.3c-0.4,1.2-1.4,2.4-2.8,3.4c-1.5,1-3.3,1.6-5.4,1.8c-2.3,0.2-4.2,0.1-5.8-0.4c-1.6-0.5-2.8-1.4-3.5-2.7
				c-0.7-1.3-1.4-3.3-1.9-6c-0.5-2.7-1-5.5-1.6-8.2c-0.4-2-0.6-3.6-0.6-4.6c0-1,0.3-2.1,1.1-3.2c0.7-1.1,1.9-2,3.4-2.8
				c1.5-0.8,3.4-1.3,5.5-1.5c2.9-0.3,5.3,0,7.2,0.7c1.9,0.7,3.2,1.8,3.8,3c0.6,1.2,0.9,3.2,1,5.8C176.9,55.5,177,56.4,177,57.3z"/>
			<path d="M199.9,63.1c-0.4,2.8-0.8,4.8-1.2,6c-0.3,1.1-1,2.1-1.9,3c-0.9,0.9-2,1.5-3.3,1.9c-1.3,0.4-2.8,0.5-4.5,0.4
				c-1.6-0.1-3-0.4-4.3-1c-1.3-0.5-2.3-1.3-3.1-2.3c-0.8-1-1.3-2.1-1.4-3.3c-0.2-1.2-0.2-3.2-0.3-6.2c0-1.6,0-3.2,0-4.9
				c0-2.9,0.1-4.9,0.2-6.1c0.2-1.2,0.7-2.3,1.6-3.2c0.9-1,2.2-1.7,3.8-2.2c1.6-0.5,3.5-0.6,5.6-0.5c2,0.2,3.8,0.6,5.3,1.3
				c1.5,0.7,2.7,1.6,3.5,2.7c0.8,1.1,1.2,2.3,1.2,3.5c0,1.2-0.2,3.2-0.7,6.1C200.4,59.9,200.1,61.5,199.9,63.1z M192.1,52.7
				c0.1-1.3,0.1-2.2-0.1-2.6c-0.2-0.4-0.5-0.6-1.1-0.6c-0.5,0-0.9,0.1-1.2,0.4c-0.3,0.3-0.5,1.1-0.6,2.6c-0.3,4.4-0.6,8.8-0.9,13.2
				c-0.1,1.6-0.1,2.7,0,3.1c0.1,0.4,0.5,0.6,1,0.7c0.6,0,0.9-0.1,1.1-0.6c0.2-0.4,0.4-1.5,0.5-3.1C191.3,61.4,191.7,57.1,192.1,52.7
				z"/>
			<path d="M227.3,52.9c-3.1,8.9-6.2,17.8-9.3,26.7c-2.2-0.8-4.4-1.5-6.6-2.1c-0.2-4.5-0.5-9-0.9-13.6c-1,4.2-2,8.3-3,12.5
				c-2.1-0.5-4.3-1-6.4-1.4c1.7-9.3,3.4-18.6,5.1-27.9c2.7,0.5,5.4,1.1,8,1.7c0.8,4.6,1.4,9.1,1.8,13.7c1.2-4.1,2.3-8.2,3.5-12.3
				C222.1,51.2,224.7,52,227.3,52.9z"/>
			<path d="M240.2,58.2c-4,8.6-7.9,17.1-11.9,25.7c-2.4-1.1-4.9-2.1-7.4-3.1c3.4-8.8,6.7-17.6,10.1-26.4
				C234.1,55.5,237.2,56.8,240.2,58.2z"/>
			<path d="M256.8,82.2c-2.5-1.8-5.1-3.6-7.7-5.2c0.9-1.4,1.7-2.8,2.6-4.2c0.8-1.2,1.1-2,1.1-2.4c0-0.4-0.3-0.8-0.9-1.2
				c-0.7-0.4-1.2-0.5-1.6-0.2c-0.4,0.3-1,1-1.7,2.2c-2.2,3.8-4.4,7.5-6.6,11.3c-0.7,1.2-1.1,2-1.1,2.5c-0.1,0.5,0.2,0.8,0.8,1.2
				c0.5,0.3,1,0.4,1.4,0.1c0.4-0.3,1-1,1.8-2.4c0.6-1,1.2-2,1.9-3c2.5,1.6,5,3.2,7.5,5c-0.2,0.3-0.4,0.6-0.6,0.9
				c-1.7,2.4-3.1,3.9-4.2,4.6c-1.1,0.7-2.6,1-4.4,0.8c-1.8-0.1-3.7-0.8-5.6-2c-2-1.2-3.5-2.5-4.5-3.9c-1-1.4-1.4-2.8-1.3-4.3
				c0.2-1.5,0.8-3.4,2.1-5.9c1.2-2.5,2.4-4.9,3.7-7.4c0.9-1.8,1.7-3.2,2.3-4c0.6-0.8,1.5-1.5,2.8-1.9c1.3-0.4,2.8-0.5,4.5-0.1
				c1.7,0.3,3.6,1.1,5.4,2.2c2.6,1.6,4.4,3.3,5.6,5.1c1.1,1.8,1.6,3.4,1.3,4.7c-0.2,1.4-1.1,3.1-2.7,5.2
				C257.8,80.7,257.3,81.5,256.8,82.2z"/>
		</g>
	</g>
	<g>
		<g>
			<path d="M126.7,270.7c-5,8.1-10,16.3-15.1,24.4c-2.9-1.8-5.8-3.7-8.6-5.8c5.6-7.8,11.3-15.5,16.9-23.3
				C122.1,267.7,124.4,269.2,126.7,270.7z"/>
			<path d="M152.1,282.1c-2.7,9.1-5.5,18.3-8.2,27.4c-2.8-0.8-5.6-1.8-8.3-2.8c2.2-6,4.5-12.1,6.7-18.1c-3.2,5.7-6.5,11.3-10,16.9
				c-1.9-0.8-3.9-1.6-5.8-2.5c1.5-6.2,3.1-12.4,4.9-18.6c-2.8,5.7-5.6,11.3-8.3,17c-2.7-1.3-5.3-2.7-7.9-4.2
				c4.8-8.3,9.5-16.6,14.3-24.9c3,1.7,6.1,3.3,9.3,4.7c-0.4,1.7-1,3.7-1.6,6c-0.6,2.4-1.2,4.8-1.8,7.2c2.4-3.8,4.7-7.7,7-11.6
				C145.5,279.9,148.8,281.1,152.1,282.1z"/>
			<path d="M168.4,285.6c0.2,9.6,0.8,19.3,1.8,28.9c-3.4-0.3-6.7-0.7-10.1-1.3c0.1-1.7,0.2-3.4,0.3-5.1c-1.1-0.2-2.3-0.4-3.4-0.6
				c-0.5,1.6-1.1,3.3-1.6,4.9c-3.4-0.7-6.7-1.5-10-2.4c4.3-8.7,8.2-17.5,11.7-26.5C161,284.4,164.7,285.1,168.4,285.6z M161.2,303
				c0.1-3.3,0.4-7.3,0.8-12c-1.8,5.2-3.2,9-3.9,11.5C159.1,302.7,160.1,302.9,161.2,303z"/>
			<path d="M193.1,296.5c-2.9,0.3-5.7,0.4-8.6,0.5c0-0.9,0-1.7,0-2.6c0-1.6-0.1-2.6-0.3-3.1c-0.2-0.4-0.5-0.6-1.1-0.6
				c-0.5,0-0.8,0.2-1,0.5c-0.2,0.4-0.3,1.3-0.3,2.7c0,4.6-0.1,9.1-0.1,13.7c0,1.3,0.1,2.1,0.3,2.5c0.2,0.4,0.6,0.6,1.3,0.6
				c0.7,0,1.2-0.2,1.4-0.7c0.2-0.5,0.4-1.4,0.3-2.7c0-1.1,0-2.2-0.1-3.4c-0.6,0-1.2,0-1.8,0c0-1.4,0-2.9,0-4.3
				c3.4,0,6.9-0.2,10.3-0.5c0.5,5.1,0.9,10.1,1.4,15.2c-2.1,0.2-4.1,0.3-6.2,0.4c-0.3-0.7-0.7-1.3-1-2c-0.6,0.9-1.5,1.6-2.5,2.1
				c-1,0.5-2.2,0.7-3.7,0.7c-1.7,0-3.2-0.4-4.7-1c-1.4-0.7-2.5-1.5-3.2-2.4c-0.7-0.9-1.1-1.9-1.2-2.9c-0.1-1-0.1-2.5,0.1-4.4
				c0.2-2.8,0.5-5.6,0.7-8.4c0.2-2.7,0.5-4.7,1-5.9c0.4-1.2,1.4-2.3,2.9-3.2c1.5-0.9,3.4-1.4,5.7-1.4c2.3,0,4.2,0.4,5.8,1.2
				c1.6,0.8,2.7,1.8,3.2,3c0.6,1.2,1,2.9,1.2,5.2C193.1,295.7,193.1,296.1,193.1,296.5z"/>
			<path d="M195.2,285.8c4.3-0.5,8.6-1.3,12.9-2.3c0.5,1.8,0.9,3.7,1.4,5.5c-1.8,0.4-3.6,0.8-5.4,1.2c0.3,1.8,0.7,3.5,1,5.3
				c1.8-0.3,3.5-0.7,5.3-1.2c0.4,1.7,0.8,3.5,1.3,5.2c-1.8,0.5-3.7,0.9-5.5,1.2c0.4,2,0.8,4.1,1.2,6.1c2.3-0.5,4.6-1,6.8-1.5
				c0.5,1.8,0.9,3.7,1.4,5.5c-5.6,1.4-11.3,2.5-17,3.2C197.5,304.6,196.3,295.2,195.2,285.8z"/>
			<path d="M210.8,282.8c1.8-0.5,3.6-1,5.4-1.6c3.5-1.2,6-2,7.3-2.3c1.3-0.3,2.6-0.1,3.9,0.6c1.2,0.6,2.4,2,3.4,4.2
				c0.9,2,1.3,3.5,1,4.4c-0.3,1-1.3,1.9-3.1,2.8c1.8-0.4,3.1-0.4,3.9-0.1c0.8,0.3,1.4,0.6,1.8,1c0.4,0.4,1,1.6,2,3.7
				c1,2.3,2.1,4.5,3.1,6.8c-2.8,1.3-5.7,2.6-8.6,3.7c-1.1-2.9-2.2-5.9-3.4-8.8c-0.5-1.4-1-2.2-1.4-2.5c-0.4-0.2-1.2-0.1-2.4,0.3
				c1.4,4,2.9,8,4.3,12c-3.2,1.1-6.3,2.2-9.6,3C215.8,301,213.3,291.9,210.8,282.8z M220,284.9c0.7,2,1.4,4,2.1,5.9
				c0.9-0.3,1.5-0.7,1.8-1c0.3-0.4,0.2-1.1-0.2-2.3c-0.2-0.5-0.4-1-0.6-1.5c-0.3-0.8-0.7-1.3-1.1-1.5
				C221.6,284.5,220.9,284.6,220,284.9z"/>
			<path d="M245,266.3c1.9,6,3.5,12.2,4.8,18.5c1.8,2.9,3.7,5.7,5.5,8.6c-2.7,1.7-5.4,3.4-8.2,4.9c-1.6-3-3.3-6-4.9-9
				c-4.8-4.2-9.4-8.6-13.7-13.2c2.2-1.1,4.4-2.2,6.6-3.4c3.7,4.2,6.3,7,7.4,8.6c-1.1-2.8-2.3-6.4-3.7-10.7
				C240.9,269.2,243,267.8,245,266.3z"/>
		</g>
	</g>
</g>
<g>
	<g>
		<defs>

				<rect id="SVGID_1_" x="156.2" y="121.6" transform="matrix(0.9931 -0.1176 0.1176 0.9931 -15.9377 22.2704)" width="49.3" height="49.3"/>
		</defs>
		<clipPath id="SVGID_2_">
			<use xlink:href="#SVGID_1_"  style="overflow:visible;"/>
		</clipPath>

			<rect x="156.2" y="121.6" transform="matrix(0.9931 -0.1176 0.1176 0.9931 -15.9377 22.2704)" class="st11" width="49.3" height="49.3"/>
		<g class="st11">
			<defs>

					<rect id="SVGID_3_" x="156.2" y="121.6" transform="matrix(0.9931 -0.1176 0.1176 0.9931 -15.9377 22.2704)" width="49.3" height="49.3"/>
			</defs>
			<clipPath id="SVGID_4_">
				<use xlink:href="#SVGID_3_"  style="overflow:visible;"/>
			</clipPath>

				<rect x="156.2" y="121.6" transform="matrix(0.9931 -0.1176 0.1176 0.9931 -15.9377 22.2704)" class="st12" width="49.3" height="49.3"/>
			<path class="st13" d="M159.3,145.1c2.4-2.7,4.7-5.7,7.7-7.8c2.7-1.9,6.1-3.7,9.5-3.6c1.9,0.1,3.8,0.7,5.6,1.2
				c1.9,0.5,3.8,1,5.8,1.5c2,0.5,4,1.2,5.9,1.9c1.9,0.7,3.9,1.7,6,2c2.6,0.5,3.9-3.6,1.3-4.5c-2.1-0.8-4.4-1-6.6-1.3
				c-2.2-0.4-4.3-0.9-6.5-1.5c-2.1-0.6-4.3-1.2-6.4-1.8c-1.9-0.5-3.9-1-5.9-0.9c-3.8,0.2-7.2,2.2-9.7,4.9c-2.7,2.9-4.8,6.2-7.2,9.3
				C158.3,145,159,145.5,159.3,145.1"/>
			<path class="st14" d="M159.3,145.1c2.4-2.7,4.7-5.7,7.7-7.8c2.7-1.9,6.1-3.7,9.5-3.6c1.9,0.1,3.8,0.7,5.6,1.2
				c1.9,0.5,3.8,1,5.8,1.5c2,0.5,4,1.2,5.9,1.9c1.9,0.7,3.9,1.7,6,2c2.6,0.5,3.9-3.6,1.3-4.5c-2.1-0.8-4.4-1-6.6-1.3
				c-2.2-0.4-4.3-0.9-6.5-1.5c-2.1-0.6-4.3-1.2-6.4-1.8c-1.9-0.5-3.9-1-5.9-0.9c-3.8,0.2-7.2,2.2-9.7,4.9c-2.7,2.9-4.8,6.2-7.2,9.3
				C158.3,145,159,145.5,159.3,145.1z"/>
			<path class="st13" d="M171.4,143.6c5-0.9,10.2-1.7,15.3-0.8c4.7,0.8,8.9,3.3,11.6,7.3c0.2,0.2,0.5,0,0.4-0.3
				c-2.5-4.1-6.4-6.6-11.1-7.6c-5.4-1.1-10.9,0-16.2,1C171.2,143.3,171.2,143.6,171.4,143.6"/>
			<path class="st14" d="M171.4,143.6c5-0.9,10.2-1.7,15.3-0.8c4.7,0.8,8.9,3.3,11.6,7.3c0.2,0.2,0.5,0,0.4-0.3
				c-2.5-4.1-6.4-6.6-11.1-7.6c-5.4-1.1-10.9,0-16.2,1C171.2,143.3,171.2,143.6,171.4,143.6z"/>
			<path class="st13" d="M168.2,152.7c2.3,1.5,4.5,2.9,7.1,3.9c2.6,0.9,5.3,1.7,8.1,1.8c5.9,0.1,11.3-3.1,15.6-6.7
				c0.5-0.4,0.1-1.5-0.6-1.1c-4.6,2.3-9.2,5.6-14.6,5.8c-2.6,0.1-5.4-0.3-7.9-1.1c-2.4-0.8-5-1.7-7.2-3
				C168.3,151.8,167.8,152.4,168.2,152.7"/>
			<path class="st14" d="M168.2,152.7c2.3,1.5,4.5,2.9,7.1,3.9c2.6,0.9,5.3,1.7,8.1,1.8c5.9,0.1,11.3-3.1,15.6-6.7
				c0.5-0.4,0.1-1.5-0.6-1.1c-4.6,2.3-9.2,5.6-14.6,5.8c-2.6,0.1-5.4-0.3-7.9-1.1c-2.4-0.8-5-1.7-7.2-3
				C168.3,151.8,167.8,152.4,168.2,152.7z"/>
			<path class="st13" d="M162.7,153.8c0,0,4.2,2.7,8.8,1.6c0,0-1.5,2.1-7.9,1c0,0,6.8,3.5,9.9-0.3c0,0,0,2.9-4.8,3.5
				c0,0,4.8,0.8,7.5-2.8c0,0,0.2,2.9-2.7,4.1c0,0,4.1-1.1,5.5-3.3c0,0-1,3.4-3.3,4.2c0,0,4.1-1.8,5.8-4.1c0,0-1.2,4.8-2.1,5
				c0,0,3.6-2.2,3.9-4.8c0,0,0.5,3.8,0.1,4.3c0,0,2.3-1.9,2.1-4.4l1.2,3.6l0.4-3.5c0,0,0.8,3,2.1,3.2c0,0-1-3.2-0.2-4.9
				c0,0,1,2.3,2.7,3.1c0,0-1.5-3.3-0.4-3.6c0,0,1.5,2.1,3.1,2.9c0,0-1.8-0.9-1.5-3.5c0,0,2.6,2,3.9,1.3c0,0-2.4-0.5-2.2-2.9
				c0,0,2.6,1.2,4,0.8c0,0-2.7-0.3-2.2-1.9c0,0-10.3,9.3-29.2-1.2C167.1,151.3,171.7,155.9,162.7,153.8"/>
			<path class="st14" d="M162.7,153.8c0,0,4.2,2.7,8.8,1.6c0,0-1.5,2.1-7.9,1c0,0,6.8,3.5,9.9-0.3c0,0,0,2.9-4.8,3.5
				c0,0,4.8,0.8,7.5-2.8c0,0,0.2,2.9-2.7,4.1c0,0,4.1-1.1,5.5-3.3c0,0-1,3.4-3.3,4.2c0,0,4.1-1.8,5.8-4.1c0,0-1.2,4.8-2.1,5
				c0,0,3.6-2.2,3.9-4.8c0,0,0.5,3.8,0.1,4.3c0,0,2.3-1.9,2.1-4.4l1.2,3.6l0.4-3.5c0,0,0.8,3,2.1,3.2c0,0-1-3.2-0.2-4.9
				c0,0,1,2.3,2.7,3.1c0,0-1.5-3.3-0.4-3.6c0,0,1.5,2.1,3.1,2.9c0,0-1.8-0.9-1.5-3.5c0,0,2.6,2,3.9,1.3c0,0-2.4-0.5-2.2-2.9
				c0,0,2.6,1.2,4,0.8c0,0-2.7-0.3-2.2-1.9c0,0-10.3,9.3-29.2-1.2C167.1,151.3,171.7,155.9,162.7,153.8z"/>
		</g>
	</g>
</g>
</svg>
